HIERARCHY
ROOT hip
{
  OFFSET 0.00112043 5.09927 -9.65472
  CHANNELS 6 Xposition Yposition Zposition Zrotation Xrotation Yrotation
  JOINT abdomen
  {
    OFFSET 0 -1.186 -1.5018
    CHANNELS 3 Zrotation Xrotation Yrotation
    JOINT abdomen2
    {
      OFFSET 0 9.964 0.2134
      CHANNELS 3 Zrotation Xrotation Yrotation
      JOINT chest
      {
        OFFSET 0 13.134 -3.2573
        CHANNELS 3 Zrotation Xrotation Yrotation
        JOINT neck
        {
          OFFSET 0 20.686 -1.6905
          CHANNELS 3 Zrotation Xrotation Yrotation
          JOINT head
          {
            OFFSET 0 7.238 -0.1237
            CHANNELS 3 Zrotation Xrotation Yrotation
            End Site
            {
              OFFSET 0 0 0
            }
          }
        }
        JOINT lCollar
        {
          OFFSET 1.7069 20.075 5.0056
          CHANNELS 3 Zrotation Xrotation Yrotation
          JOINT lShldr
          {
            OFFSET 13.6458 -0.047 -4.849
            CHANNELS 3 Zrotation Xrotation Yrotation
            JOINT lForeArm
            {
              OFFSET 28.3255 -0.9759 2.2888
              CHANNELS 3 Zrotation Xrotation Yrotation
              JOINT lHand
              {
                OFFSET 22.1583 -0.53 10.8316
                CHANNELS 3 Zrotation Xrotation Yrotation
                JOINT lThumb1
                {
                  OFFSET 0.786 0.112 2.5817
                  CHANNELS 3 Zrotation Xrotation Yrotation
                  JOINT lThumb2
                  {
                    OFFSET 0.3601 -0.878 4.2331
                    CHANNELS 3 Zrotation Xrotation Yrotation
                    JOINT lThumb2_End
                    {
                      OFFSET 1.8127 -1.216 2.2227
                      CHANNELS 3 Zrotation Xrotation Yrotation
                      End Site
                      {
                        OFFSET 0.0181 -0.0122 0.0222
                      }
                    }
                  }
                }
                JOINT lCarpal1
                {
                  OFFSET 0.9571 1.114 1.7695
                  CHANNELS 3 Zrotation Xrotation Yrotation
                  JOINT lIndex1
                  {
                    OFFSET 4.1246 0.487 4.1451
                    CHANNELS 3 Zrotation Xrotation Yrotation
                    JOINT lIndex2
                    {
                      OFFSET 3.4052 -1.454 2.7682
                      CHANNELS 3 Zrotation Xrotation Yrotation
                      JOINT lIndex2_End
                      {
                        OFFSET 1.4531 -1.795 1.2713
                        CHANNELS 3 Zrotation Xrotation Yrotation
                        End Site
                        {
                          OFFSET 0.0145 -0.0179 0.0127
                        }
                      }
                    }
                  }
                  JOINT lMid1
                  {
                    OFFSET 5.6954 0.21 2.1184
                    CHANNELS 3 Zrotation Xrotation Yrotation
                    JOINT lMid2
                    {
                      OFFSET 3.9766 -1.54 2.3863
                      CHANNELS 3 Zrotation Xrotation Yrotation
                      JOINT lMid2_End
                      {
                        OFFSET 1.4042 -1.926 1.125
                        CHANNELS 3 Zrotation Xrotation Yrotation
                        End Site
                        {
                          OFFSET 0.014 -0.0193 0.0113
                        }
                      }
                    }
                  }
                }
                JOINT lCarpal2
                {
                  OFFSET 2.0956 0.66 -0.3894
                  CHANNELS 3 Zrotation Xrotation Yrotation
                  JOINT lRing1
                  {
                    OFFSET 5.0395 -0.09 2.4971
                    CHANNELS 3 Zrotation Xrotation Yrotation
                    JOINT lRing2
                    {
                      OFFSET 3.7921 -1.552 1.4806
                      CHANNELS 3 Zrotation Xrotation Yrotation
                      JOINT lRing2_End
                      {
                        OFFSET 1.4655 -1.808 0.9609
                        CHANNELS 3 Zrotation Xrotation Yrotation
                        End Site
                        {
                          OFFSET 0.0147 -0.0181 0.0096
                        }
                      }
                    }
                  }
                  JOINT lPinky1
                  {
                    OFFSET 4.9141 -1.269 0.3591
                    CHANNELS 3 Zrotation Xrotation Yrotation
                    JOINT lPinky2
                    {
                      OFFSET 3.1477 -1.685 0.8462
                      CHANNELS 3 Zrotation Xrotation Yrotation
                      JOINT lPinky2_End
                      {
                        OFFSET 0.8055 -1.585 0.7955
                        CHANNELS 3 Zrotation Xrotation Yrotation
                        End Site
                        {
                          OFFSET 0.0081 -0.0158 0.008
                        }
                      }
                    }
                  }
                }
              }
            }
          }
        }
        JOINT rCollar
        {
          OFFSET -1.7069 20.075 5.0056
          CHANNELS 3 Zrotation Xrotation Yrotation
          JOINT rShldr
          {
            OFFSET -13.6458 -0.047 -4.849
            CHANNELS 3 Zrotation Xrotation Yrotation
            JOINT rForeArm
            {
              OFFSET -28.3255 -0.9759 2.2888
              CHANNELS 3 Zrotation Xrotation Yrotation
              JOINT rHand
              {
                OFFSET -22.1583 -0.53 10.8316
                CHANNELS 3 Zrotation Xrotation Yrotation
                JOINT rThumb1
                {
                  OFFSET -0.786 0.112 2.5817
                  CHANNELS 3 Zrotation Xrotation Yrotation
                  JOINT rThumb2
                  {
                    OFFSET -0.3601 -0.878 4.2331
                    CHANNELS 3 Zrotation Xrotation Yrotation
                    JOINT rThumb2_End
                    {
                      OFFSET -1.8127 -1.216 2.2227
                      CHANNELS 3 Zrotation Xrotation Yrotation
                      End Site
                      {
                        OFFSET -0.0181 -0.0122 0.0222
                      }
                    }
                  }
                }
                JOINT rCarpal1
                {
                  OFFSET -0.9571 1.114 1.7695
                  CHANNELS 3 Zrotation Xrotation Yrotation
                  JOINT rIndex1
                  {
                    OFFSET -4.1246 0.487 4.1451
                    CHANNELS 3 Zrotation Xrotation Yrotation
                    JOINT rIndex2
                    {
                      OFFSET -3.4052 -1.454 2.7682
                      CHANNELS 3 Zrotation Xrotation Yrotation
                      JOINT rIndex2_End
                      {
                        OFFSET -1.4531 -1.795 1.2713
                        CHANNELS 3 Zrotation Xrotation Yrotation
                        End Site
                        {
                          OFFSET -0.0145 -0.018 0.0127
                        }
                      }
                    }
                  }
                  JOINT rMid1
                  {
                    OFFSET -5.6954 0.21 2.1184
                    CHANNELS 3 Zrotation Xrotation Yrotation
                    JOINT rMid2
                    {
                      OFFSET -3.9766 -1.54 2.3863
                      CHANNELS 3 Zrotation Xrotation Yrotation
                      JOINT rMid2_End
                      {
                        OFFSET -1.4042 -1.926 1.125
                        CHANNELS 3 Zrotation Xrotation Yrotation
                        End Site
                        {
                          OFFSET -0.014 -0.0193 0.0113
                        }
                      }
                    }
                  }
                }
                JOINT rCarpal2
                {
                  OFFSET -2.0956 0.66 -0.3894
                  CHANNELS 3 Zrotation Xrotation Yrotation
                  JOINT rRing1
                  {
                    OFFSET -5.0395 -0.09 2.4971
                    CHANNELS 3 Zrotation Xrotation Yrotation
                    JOINT rRing2
                    {
                      OFFSET -3.7921 -1.552 1.4806
                      CHANNELS 3 Zrotation Xrotation Yrotation
                      JOINT rRing2_End
                      {
                        OFFSET -1.4655 -1.808 0.9609
                        CHANNELS 3 Zrotation Xrotation Yrotation
                        End Site
                        {
                          OFFSET -0.0147 -0.0181 0.0096
                        }
                      }
                    }
                  }
                  JOINT rPinky1
                  {
                    OFFSET -4.9141 -1.269 0.3592
                    CHANNELS 3 Zrotation Xrotation Yrotation
                    JOINT rPinky2
                    {
                      OFFSET -3.1477 -1.685 0.8462
                      CHANNELS 3 Zrotation Xrotation Yrotation
                      JOINT rPinky2_End
                      {
                        OFFSET -0.8055 -1.585 0.7955
                        CHANNELS 3 Zrotation Xrotation Yrotation
                        End Site
                        {
                          OFFSET -0.0081 -0.0158 0.008
                        }
                      }
                    }
                  }
                }
              }
            }
          }
        }
      }
    }
  }
  JOINT lThigh
  {
    OFFSET 8.367 -8.2066 0.5982
    CHANNELS 3 Zrotation Xrotation Yrotation
    JOINT lShin
    {
      OFFSET 2.1923 -43.463 -0.4932
      CHANNELS 3 Zrotation Xrotation Yrotation
      JOINT lFoot
      {
        OFFSET 0.7333 -45.8593 -2.6451
        CHANNELS 3 Zrotation Xrotation Yrotation
        End Site
        {
          OFFSET 2.6618 -4.2699 12.3931
        }
      }
    }
  }
  JOINT rThigh
  {
    OFFSET -8.367 -8.2066 0.5982
    CHANNELS 3 Zrotation Xrotation Yrotation
    JOINT rShin
    {
      OFFSET -2.1923 -43.463 -0.4931
      CHANNELS 3 Zrotation Xrotation Yrotation
      JOINT rFoot
      {
        OFFSET -0.7333 -45.8593 -2.6451
        CHANNELS 3 Zrotation Xrotation Yrotation
        End Site
        {
          OFFSET -2.6618 -4.2699 12.3931
        }
      }
    }
  }
}
MOTION
Frames:	6
Frame Time:	0.0333333
0 91.7903 2.51682 0 0 -0 0 0 -0 0 0 -0 0 0 -0 0 0 -0 0 0 -0 0 0 -0 1.66051 0.0835086 5.75766 -0.0175111 0.895433 15.7816 7.95139e-016 -1.98785e-016 -0 5.46658e-016 -3.97569e-016 -0 5.96354e-016 0 -0 3.97569e-016 1.98785e-016 9.54166e-015 1.49089e-016 -3.97569e-016 -0 6.4605e-016 0 3.18055e-015 5.96354e-016 0 3.18055e-015 8.94531e-016 -1.98785e-016 6.36111e-015 6.4605e-016 0 3.18055e-015 5.96354e-016 0 3.18055e-015 8.94531e-016 -1.98785e-016 6.36111e-015 1.49089e-016 -3.97569e-016 -0 6.4605e-016 0 3.18055e-015 5.96354e-016 0 3.18055e-015 8.94531e-016 -1.98785e-016 6.36111e-015 6.4605e-016 0 3.18055e-015 5.96354e-016 0 3.18055e-015 8.94531e-016 -1.98785e-016 6.36111e-015 0 0 -0 -1.4496 0.0636048 -5.0245 -1.74811 1.20616 -16.8394 -1.19271e-015 1.98785e-016 -3.18055e-015 -3.97569e-016 1.98785e-016 -3.18055e-015 -2.98177e-016 1.98785e-016 -3.18055e-015 -2.98177e-016 3.97569e-016 -0 4.96962e-016 0 -6.36111e-015 -9.93923e-017 3.97569e-016 -0 -8.94531e-016 5.96354e-016 -0 -3.97569e-016 3.97569e-016 -0 -9.93923e-017 3.97569e-016 -0 -8.94531e-016 5.96354e-016 -0 -3.97569e-016 3.97569e-016 -0 4.96962e-016 0 -6.36111e-015 -9.93923e-017 3.97569e-016 -0 -8.94531e-016 5.96354e-016 -0 -3.97569e-016 3.97569e-016 -0 -9.93923e-017 3.97569e-016 -0 -8.94531e-016 5.96354e-016 -0 -3.97569e-016 3.97569e-016 -0 -4.66111 -0.998717 0.12318 0.00986924 1.54847 0.176523 4.65186 -0.572283 -0.254274 4.66111 -0.998765 -0.123176 -0.00986867 1.54869 -0.176537 -4.65186 -0.572453 0.25427 
-3.14814 42.9605 -35.1581 114.099 -57.1558 -0.300993 -0.0537741 -0.0966248 -0.084772 -0.107652 -0.193163 -0.169696 -0.107668 -0.193185 -0.169684 0.000687313 -12.8524 0.000482642 -9.79578e-006 -11.5813 -1.23108e-006 -3.85099 -0.0995329 -0.146183 2.9662 -3.11969 -28.609 8.80783 -10.2166 -3.9086 36.2252 -12.8482 4.98937 3.17642e-006 -5.47327e-006 3.7117e-006 1.81438e-006 -8.55107e-007 -1.59267e-006 6.04792e-007 -2.85036e-007 -5.3089e-007 -3.18055e-015 1.39149e-015 8.69683e-016 3.17642e-006 -5.47327e-006 3.7117e-006 1.81438e-006 -8.55107e-007 -1.59267e-006 6.04792e-007 -2.85036e-007 -5.3089e-007 3.17642e-006 -5.47327e-006 3.7117e-006 1.81438e-006 -8.55107e-007 -1.59267e-006 6.04792e-007 -2.85036e-007 -5.3089e-007 -3.18055e-015 1.39149e-015 8.69683e-016 3.17642e-006 -5.47327e-006 3.7117e-006 1.81438e-006 -8.55107e-007 -1.59267e-006 6.04792e-007 -2.85036e-007 -5.3089e-007 3.17642e-006 -5.47327e-006 3.7117e-006 1.81438e-006 -8.55107e-007 -1.59267e-006 6.04792e-007 -2.85036e-007 -5.3089e-007 3.84987 -0.0998687 0.147774 -2.78244 -3.01752 29.3438 -10.7551 -10.3334 2.53292 -36.1907 -12.9456 -5.32431 6.3211e-007 -5.52575e-007 9.45603e-007 -2.88757e-006 -8.03046e-007 5.3482e-006 -1.31585e-006 1.66311e-006 -4.82617e-008 3.18055e-015 -5.96354e-016 1.98785e-015 6.3211e-007 -5.52575e-007 9.45603e-007 -2.88757e-006 -8.03046e-007 5.3482e-006 -1.31585e-006 1.66311e-006 -4.82617e-008 6.3211e-007 -5.52575e-007 9.45603e-007 -2.88757e-006 -8.03046e-007 5.3482e-006 -1.31585e-006 1.66311e-006 -4.82617e-008 3.18055e-015 -5.96354e-016 1.98785e-015 6.3211e-007 -5.52575e-007 9.45603e-007 -2.88757e-006 -8.03046e-007 5.3482e-006 -1.31585e-006 1.66311e-006 -4.82617e-008 6.3211e-007 -5.52575e-007 9.45603e-007 -2.88757e-006 -8.03046e-007 5.3482e-006 -1.31585e-006 1.66311e-006 -4.82617e-008 76.9624 -81.234 91.1431 14.014 80.8239 -14.3507 7.00961 39.4916 -2.32183 -85.1619 -81.7574 -99.6999 -12.8856 79.8953 12.8799 -7.61558 41.6194 2.47504 
-0.377563 23.2212 -50.5876 12.0132 -85.3561 -176.711 -0.0888805 -0.15055 -0.139882 -0.178137 -0.300801 -0.280008 -0.178137 -0.300812 -0.280008 0.000742727 -20.8496 0.000746183 1.07876e-006 -18.7505 1.56937e-006 -6.42163 -0.0215773 -0.798663 2.30972 -3.81929 -50.6163 10.9995 -15.3471 -17.1025 61.399 -18.6489 12.1916 -9.65806e-007 7.50646e-008 6.09219e-006 1.98785e-016 -1.49089e-015 -1.27222e-014 -2.47065e-007 2.3819e-008 9.73113e-006 -4.96962e-016 -1.3418e-015 -9.54166e-015 -9.65806e-007 7.50646e-008 6.09219e-006 7.95139e-016 -1.59028e-015 -1.27222e-014 -2.47065e-007 2.3819e-008 9.73113e-006 -9.65806e-007 7.50646e-008 6.09219e-006 7.95139e-016 -1.59028e-015 -1.27222e-014 -2.47065e-007 2.3819e-008 9.73113e-006 -4.96962e-016 -1.3418e-015 -9.54166e-015 -9.65806e-007 7.50646e-008 6.09219e-006 7.95139e-016 -1.59028e-015 -1.27222e-014 -2.47065e-007 2.3819e-008 9.73113e-006 -9.65806e-007 7.50646e-008 6.09219e-006 7.95139e-016 -1.59028e-015 -1.27222e-014 -2.47065e-007 2.3819e-008 9.73113e-006 6.41808 -0.0213201 0.792698 -2.17983 -3.65639 51.3615 -12.9533 -15.7895 15.5871 -61.3838 -18.6899 -12.7605 -7.95139e-016 1.59028e-015 -0 -1.19271e-015 0 -6.36111e-015 4.8553e-031 2.18663e-015 -1.27222e-014 -1.59028e-015 9.93923e-016 -0 -1.19271e-015 2.38542e-015 3.18055e-015 -3.97569e-016 1.78906e-015 -0 3.97569e-016 5.96354e-016 3.18055e-015 -1.19271e-015 2.38542e-015 3.18055e-015 -3.97569e-016 1.78906e-015 -0 3.97569e-016 5.96354e-016 3.18055e-015 -1.59028e-015 9.93923e-016 -0 -1.19271e-015 2.38542e-015 3.18055e-015 -3.97569e-016 1.78906e-015 -0 3.97569e-016 5.96354e-016 3.18055e-015 -1.19271e-015 2.38542e-015 3.18055e-015 -3.97569e-016 1.78906e-015 -0 3.97569e-016 5.96354e-016 3.18055e-015 155.773 -30.4392 174.423 170.321 47.7519 -163.05 13.407 69.1937 -3.66429 -155.765 -29.8589 -173.62 -170.787 46.7766 163.986 -12.8361 68.7575 3.50773 
-0.237818 24.1685 -50.164 9.13486 -86.1303 -176.267 -0.087518 -0.120676 -0.136887 -0.17532 -0.241306 -0.273958 -0.17532 -0.241277 -0.273961 -0.000299433 -19.4053 -0.000360232 -3.50678e-007 -17.3422 -5.60515e-007 -6.48498 0.399363 -2.43609 2.35114 -3.84497 -48.3311 10.5738 -14.8821 -15.3645 60.3807 -19.0144 11.2041 7.74066e-007 -1.55069e-007 2.25143e-006 -1.47101e-014 -2.24627e-014 -0 -1.35174e-014 -2.28602e-014 -6.36111e-015 -1.19271e-015 5.96354e-016 -6.36111e-015 7.74066e-007 -1.55069e-007 2.25143e-006 -1.47101e-014 -2.24627e-014 -0 -1.31198e-014 -2.28602e-014 -6.36111e-015 7.74066e-007 -1.55069e-007 2.25143e-006 -1.47101e-014 -2.24627e-014 -0 -1.31198e-014 -2.28602e-014 -6.36111e-015 -1.19271e-015 5.96354e-016 -6.36111e-015 7.74066e-007 -1.55069e-007 2.25143e-006 -1.47101e-014 -2.24627e-014 -0 -1.31198e-014 -2.28602e-014 -6.36111e-015 7.74066e-007 -1.55069e-007 2.25143e-006 -1.47101e-014 -2.24627e-014 -0 -1.31198e-014 -2.28602e-014 -6.36111e-015 6.47537 0.401586 2.40272 -2.21747 -3.68971 49.1275 -12.5402 -15.2875 13.855 -60.3643 -19.0607 -11.774 7.95139e-016 -1.44119e-015 -3.18055e-015 4.96962e-016 -1.49089e-015 6.36111e-015 9.93923e-016 -7.95139e-016 -0 3.97569e-016 -3.97569e-016 -3.18055e-015 3.97569e-016 -1.2921e-015 1.27222e-014 8.94531e-016 -1.19271e-015 3.18055e-015 1.59028e-015 -3.47873e-016 -0 3.97569e-016 -1.2921e-015 1.27222e-014 8.94531e-016 -1.19271e-015 3.18055e-015 1.59028e-015 -3.47873e-016 -0 3.97569e-016 -3.97569e-016 -3.18055e-015 3.97569e-016 -1.2921e-015 1.27222e-014 8.94531e-016 -1.19271e-015 3.18055e-015 1.59028e-015 -3.47873e-016 -0 3.97569e-016 -1.2921e-015 1.27222e-014 8.94531e-016 -1.19271e-015 3.18055e-015 1.59028e-015 -3.47873e-016 -0 154.559 -33.9958 172.848 170.217 49.8772 -163.561 13.6945 67.2521 -4.05744 -154.524 -33.671 -172.358 -170.515 49.2626 164.133 -13.3399 66.9293 3.94627 
-0.0187507 25.6957 -49.305 6.6139 -88.0418 -173.144 -0.0851112 -0.088763 -0.132589 -0.170428 -0.177339 -0.26531 -0.170428 -0.177303 -0.26531 0.000510162 -17.6741 0.000566448 1.35084e-008 -15.6758 -7.9313e-008 -6.45911 0.838279 -4.1063 2.41844 -3.85144 -45.3163 10.0609 -14.2446 -13.1775 58.5444 -19.2524 9.93689 -2.38542e-015 2.38542e-015 -0 -7.95139e-016 1.59028e-015 -6.36111e-015 -7.95139e-016 1.59028e-015 -0 -1.59028e-015 7.95139e-016 -0 -2.38542e-015 0 -6.36111e-015 -7.95139e-016 7.95139e-016 -0 -7.95139e-016 1.59028e-015 -3.18055e-015 -2.38542e-015 0 -6.36111e-015 -7.95139e-016 7.95139e-016 -0 -7.95139e-016 1.59028e-015 -3.18055e-015 -1.59028e-015 7.95139e-016 -0 -2.38542e-015 0 -6.36111e-015 -7.95139e-016 7.95139e-016 -0 -7.95139e-016 1.59028e-015 -3.18055e-015 -2.38542e-015 0 -6.36111e-015 -7.95139e-016 7.95139e-016 -0 -7.95139e-016 1.59028e-015 -3.18055e-015 6.44588 0.842711 4.04854 -2.27963 -3.7068 46.1655 -12.0391 -14.6018 11.6789 -58.5258 -19.3068 -10.501 -4.41391e-032 -7.95139e-016 -3.18055e-015 -7.95139e-016 -3.18055e-015 -3.18055e-015 -1.59028e-015 -7.95139e-016 -3.18055e-015 4.41391e-032 7.95139e-016 -3.18055e-015 -7.95139e-016 -2.78299e-015 -3.18055e-015 -7.95139e-016 -1.98785e-015 -3.18055e-015 -7.95139e-016 -1.19271e-015 -3.18055e-015 -7.95139e-016 -2.78299e-015 -3.18055e-015 -7.95139e-016 -1.98785e-015 -3.18055e-015 -7.95139e-016 -1.19271e-015 -3.18055e-015 4.41391e-032 7.95139e-016 -3.18055e-015 -7.95139e-016 -2.78299e-015 -3.18055e-015 -7.95139e-016 -1.98785e-015 -3.18055e-015 -7.95139e-016 -1.19271e-015 -3.18055e-015 -7.95139e-016 -2.78299e-015 -3.18055e-015 -7.95139e-016 -1.98785e-015 -3.18055e-015 -7.95139e-016 -1.19271e-015 -3.18055e-015 152.671 -39.3513 170.455 169.979 53.4717 -164.285 13.6871 64.2109 -4.32446 -152.667 -39.3581 -170.472 -169.968 53.4999 164.257 -13.711 64.2296 4.33313 
-0.0179352 25.721 -49.5059 4.32034 -87.1763 -175.449 -0.0850697 -0.0625095 -0.131984 -0.170282 -0.124832 -0.264062 -0.170281 -0.124815 -0.264062 -0.000928178 -16.6316 -0.00101927 1.67547e-007 -14.6325 -2.76612e-008 -6.60759 1.25727 -5.71367 2.41665 -3.86818 -44.0689 9.6783 -13.9728 -12.092 58.6635 -19.7885 9.34945 -7.95139e-016 1.59028e-015 -6.36111e-015 -2.38542e-015 1.59028e-015 -3.18055e-015 -2.38542e-015 7.95139e-016 -3.18055e-015 1.76556e-031 1.59028e-015 -6.36111e-015 -3.97569e-015 7.95139e-016 9.54166e-015 2.64834e-031 1.59028e-015 -9.54166e-015 7.95139e-016 7.95139e-016 -3.18055e-015 -3.97569e-015 7.95139e-016 9.54166e-015 2.64834e-031 1.59028e-015 -9.54166e-015 7.95139e-016 7.95139e-016 -3.18055e-015 1.76556e-031 1.59028e-015 -6.36111e-015 -3.97569e-015 7.95139e-016 9.54166e-015 2.64834e-031 1.59028e-015 -9.54166e-015 7.95139e-016 7.95139e-016 -3.18055e-015 -3.97569e-015 7.95139e-016 9.54166e-015 2.64834e-031 1.59028e-015 -9.54166e-015 7.95139e-016 7.95139e-016 -3.18055e-015 6.58797 1.26299 5.62769 -2.27742 -3.72915 44.9681 -11.6647 -14.3088 10.5956 -58.6447 -19.8434 -9.92407 2.68282e-007 2.01563e-008 -7.05717e-006 -0 -3.97569e-016 -0 -2.68282e-007 -2.01563e-008 7.05717e-006 7.95139e-016 1.59028e-015 9.54166e-015 2.68282e-007 2.01563e-008 -7.05717e-006 0 0 -6.36111e-015 -2.68282e-007 -2.01563e-008 7.05717e-006 2.68282e-007 2.01563e-008 -7.05717e-006 0 0 -6.36111e-015 -2.68282e-007 -2.01563e-008 7.05717e-006 7.95139e-016 1.59028e-015 9.54166e-015 2.68282e-007 2.01563e-008 -7.05717e-006 0 0 -6.36111e-015 -2.68282e-007 -2.01563e-008 7.05717e-006 2.68282e-007 2.01563e-008 -7.05717e-006 0 0 -6.36111e-015 -2.68282e-007 -2.01563e-008 7.05717e-006 151.943 -40.1911 169.657 169.979 53.474 -164.298 14.0757 63.9197 -4.603 -151.937 -40.1968 -169.673 -169.969 53.5006 164.271 -14.1004 63.9383 4.61312 
